<?xml version="1.0" standalone="no"?><!DOCTYPE svg PUBLIC "-//W3C//DTD SVG 1.1//EN" "http://www.w3.org/Graphics/SVG/1.1/DTD/svg11.dtd"><svg t="1574062072286" class="icon" viewBox="0 0 1024 1024" version="1.1" xmlns="http://www.w3.org/2000/svg" p-id="5825" width="600" height="600" xmlns:xlink="http://www.w3.org/1999/xlink"><defs><style type="text/css"></style></defs><path d="M901.12 701.44h-76.8v-77.824c0-20.48-14.336-37.376-34.816-37.376s-34.816 16.384-34.816 37.376V701.44h-76.8c-20.48 0-37.376 16.384-37.376 37.376s16.384 33.792 37.376 33.792h76.8v74.24c0 20.48 14.336 37.376 34.816 37.376s34.816-16.384 34.816-37.376v-74.24h76.8c20.48 0 37.376-13.312 37.376-33.792s-16.896-37.376-37.376-37.376z" p-id="5826" fill="#BFCBD9"></path><path d="M603.648 883.712h-443.904c20.48-167.424 178.176-297.472 369.664-297.472 143.36 0 260.096-116.736 260.096-260.096s-116.736-260.096-260.096-260.096c-143.36 0-260.096 116.736-260.096 260.096 0 86.528 42.496 163.328 107.52 210.944-171.008 57.344-293.376 207.872-293.376 384.512 0 20.48 16.896 37.376 37.376 37.376h483.328c20.48 0 37.376-16.384 37.376-37.376s-17.408-37.888-37.888-37.888z m-257.024-559.104c0-100.864 81.92-183.296 183.296-183.296s183.296 81.92 183.296 183.296-81.92 183.296-183.296 183.296c-101.376 0-183.296-81.92-183.296-183.296z" p-id="5827" fill="#BFCBD9"></path><path d="M549.888 640l-10.24-19.968c-1.536-3.072-4.096-4.608-7.68-4.608h-42.496c-3.072 0-6.144 1.536-7.68 4.608l-10.24 19.968c-2.56 5.12-2.56 11.264 0 15.872l21.504 28.16-23.04 123.392c-0.512 4.096 0.512 8.704 3.072 11.776l33.28 32.768c3.584 4.608 10.752 4.608 14.336 0l28.16-32.768c2.56-3.584 3.584-7.68 3.072-11.776l-23.04-123.392 21.504-28.16c2.048-5.12 2.048-10.752-0.512-15.872z" p-id="5828" fill="#BFCBD9"></path></svg>