<?xml version="1.0" standalone="no"?><!DOCTYPE svg PUBLIC "-//W3C//DTD SVG 1.1//EN" "http://www.w3.org/Graphics/SVG/1.1/DTD/svg11.dtd"><svg t="1573609624494" class="icon" viewBox="0 0 1024 1024" version="1.1" xmlns="http://www.w3.org/2000/svg" p-id="3085" xmlns:xlink="http://www.w3.org/1999/xlink" width="600" height="600"><defs><style type="text/css"></style></defs><path d="M636.928 223.744c-16.384-42.496-45.056-75.264-85.504-96.768-26.112-13.824-54.272-20.48-83.968-23.04-38.912-3.072-76.8 0.512-113.152 14.336-43.52 16.384-77.312 45.056-98.816 86.528C237.568 238.592 230.912 273.92 230.4 315.392c0.512 5.12 0.512 13.824 1.536 23.04 5.12 45.568 16.384 89.6 32.256 132.608 13.824 37.888 32.256 73.728 59.392 104.448 34.304 38.4 75.776 60.928 128.512 58.368 31.744-1.536 59.392-13.824 83.968-33.792 28.672-23.552 49.152-53.248 65.536-86.528 26.624-55.808 42.496-115.2 49.152-176.64 4.096-38.912 0-76.8-13.824-113.152z m-2.048 115.2c-6.144 56.832-20.992 111.616-45.568 163.328-14.848 30.72-33.792 58.368-60.416 79.872-22.528 18.432-48.128 29.696-77.824 31.232-49.152 2.56-87.04-18.432-118.784-53.76-25.088-28.16-41.984-61.44-54.784-96.768-14.336-39.424-25.088-80.384-29.696-122.368-1.024-8.192-1.024-16.384-1.536-20.992 0.512-38.4 6.656-71.168 23.04-101.888 20.48-38.4 51.2-64.512 91.648-79.872 33.792-12.8 68.608-15.872 104.448-13.312 27.136 2.048 53.248 8.704 77.312 20.992 37.888 19.456 64 49.664 79.36 89.088 12.8 33.792 16.896 68.608 12.8 104.448zM843.776 653.824V540.16h-94.72v113.664H635.392v94.72h113.664v113.664h94.72v-5.632-101.888c0-5.12 1.536-5.632 6.144-5.632h107.52v-94.72c-37.888-0.512-75.264-0.512-113.664-0.512z m97.792 79.872h-113.152v113.152h-64.512v-113.152h-112.64v-64.512h113.152v-113.152h64.512v113.152H942.08v64.512zM558.592 686.08c-0.512 0-1.536-0.512-3.072-0.512-25.088-1.536-50.176-4.096-74.752-4.608-51.2-1.536-102.4 0-153.6 5.12-40.96 4.608-81.408 11.264-121.344 22.528-29.696 8.704-58.88 18.432-86.016 33.28-20.48 11.264-36.352 27.136-45.056 49.664-6.656 17.408-8.704 35.84-8.704 54.272V919.04H700.416c-95.232-48.128-142.848-125.44-141.824-232.96zM77.824 847.36c0-16.896 2.048-33.28 8.192-48.64 8.192-19.968 23.04-34.816 43.008-45.056 25.6-13.312 53.248-22.528 81.408-30.208 37.888-10.24 70.144-15.872 109.056-19.968 48.64-5.12 97.792-8.704 146.432-7.168 23.552 0.512 52.224-0.512 75.776 1.024 1.024 0 2.048 0.512 2.56 0.512 0 74.24 35.328 164.352 111.104 208.896H76.8c1.024-17.92 1.024-41.472 1.024-59.392z" fill="#BFCBD9" p-id="3086"></path><path d="M277.504 462.848c12.8 35.328 29.696 68.096 54.784 96.768 31.744 35.328 70.144 56.32 118.784 53.76 29.696-1.536 55.296-12.8 77.824-31.232 26.624-21.504 45.568-49.664 60.416-79.872 24.576-51.712 39.424-106.496 45.568-163.328 4.096-35.328 0-70.656-12.8-103.936-15.36-39.424-41.472-69.632-79.36-89.088-24.064-12.8-50.176-18.944-77.312-20.992-35.84-2.56-70.656 0.512-104.448 13.312-40.448 15.36-71.168 41.472-91.648 79.872-16.384 30.72-22.528 64-22.528 101.888 0.512 4.608 0.512 12.8 1.536 20.992 4.608 41.472 14.848 82.432 29.184 121.856zM941.568 669.184h-113.152v-113.152h-64.512v113.152h-112.64v64.512h112.64v112.64h64.512v-112.64h113.152zM656.384 906.752c-76.288-44.544-111.104-134.144-111.104-208.896-0.512 0-1.536-0.512-2.56-0.512-23.552-1.536-52.224-0.512-75.776-1.024-48.64-1.536-98.304 2.56-146.432 7.168-38.912 4.096-71.168 9.728-109.056 19.968-28.16 7.68-55.808 16.384-81.408 30.208-19.456 10.24-34.816 24.576-43.008 45.056-6.656 15.872-8.192 32.256-8.192 48.64v59.392H656.384z" fill="#BFCBD9" p-id="3087"></path></svg>