<?xml version="1.0" standalone="no"?><!DOCTYPE svg PUBLIC "-//W3C//DTD SVG 1.1//EN" "http://www.w3.org/Graphics/SVG/1.1/DTD/svg11.dtd"><svg t="1573612452684" class="icon" viewBox="0 0 1070 1024" version="1.1" xmlns="http://www.w3.org/2000/svg" p-id="11132" xmlns:xlink="http://www.w3.org/1999/xlink" width="626.953125" height="600"><defs><style type="text/css"></style></defs><path d="M639.674182 929.885091H20.666182a19.176727 19.176727 0 0 1-19.502546-18.804364v-22.574545c-0.325818-6.330182-0.930909-40.820364 21.876364-78.754909 14.289455-23.738182 34.862545-44.078545 61.067636-60.509091 31.790545-20.014545 72.052364-34.117818 119.621819-42.123637l0.744727-0.09309c0.372364-0.046545 37.003636-4.887273 74.193454-14.336 64.512-16.430545 70.190545-30.906182 70.190546-31.092364a17.640727 17.640727 0 0 1 1.629091-4.096c0.512-2.699636 1.861818-12.939636-0.651637-40.308364-6.330182-69.492364-43.892364-110.545455-74.007272-143.546182-9.541818-10.426182-18.525091-20.247273-25.413819-29.928727a187.997091 187.997091 0 0 1-32.721454-90.856727v-0.930909c0-18.850909 9.774545-27.601455 18.338909-35.234909l0.465455-0.418909a4.189091 4.189091 0 0 0 0.558545-0.558546c0.093091-1.303273-0.605091-4.747636-1.070545-7.074909a485.748364 485.748364 0 0 0-0.512-2.606545c-7.447273-39.191273-8.005818-99.746909-1.210182-138.612364C236.776727 116.363636 282.391273 77.265455 284.392727 75.589818l0.186182-0.186182c6.562909-5.352727 13.218909-11.170909 17.454546-17.687272a17.826909 17.826909 0 0 0 1.11709-1.861819 77.125818 77.125818 0 0 0-1.11709-2.606545c-2.56-5.678545-6.376727-14.196364-4.189091-25.134545 1.303273-6.656 6.330182-18.478545 25.134545-23.319273 7.540364-1.954909 15.639273-2.327273 21.550546-2.653091h1.163636A586.612364 586.612364 0 0 1 419.048727 1.722182c182.132364 13.451636 244.829091 79.127273 247.389091 81.92l0.465455 0.465454c14.568727 16.849455 25.367273 37.841455 32.116363 62.370909 2.094545 7.68 3.444364 14.103273 4.189091 20.200728 6.376727 35.653818 5.306182 72.285091 3.956364 96.814545-0.791273 13.684364-2.373818 28.16-5.026909 45.381818-0.698182 4.654545 0.093091 5.585455 0.418909 5.911273 0.744727 0.930909 1.722182 1.908364 2.792727 2.978909a46.545455 46.545455 0 0 1 12.427637 18.804364c1.442909 4.561455 2.141091 9.402182 2.14109 15.36v0.930909a188.043636 188.043636 0 0 1-32.721454 90.856727c-6.888727 9.681455-15.872 19.502545-25.413818 29.928727-30.161455 32.954182-67.677091 74.053818-74.007273 143.592728-2.513455 27.368727-1.210182 37.562182-0.698182 40.261818a20.014545 20.014545 0 0 1 1.629091 4.142545c0.046545 0.093091 4.933818 12.706909 57.856 27.694546A208.523636 208.523636 0 0 0 605.090909 814.545455c0 42.635636 12.753455 82.292364 34.583273 115.339636z" p-id="11133" fill="#BFCBD9"></path><path d="M837.818182 791.272727h-93.090909v46.545455h93.090909v93.090909h46.545454v-93.090909h93.090909v-46.545455h-93.090909v-93.090909h-46.545454v93.090909z m23.272727 232.727273a209.454545 209.454545 0 1 1 0-418.909091 209.454545 209.454545 0 0 1 0 418.909091z" p-id="11134" fill="#BFCBD9"></path></svg>