<?xml version="1.0" standalone="no"?><!DOCTYPE svg PUBLIC "-//W3C//DTD SVG 1.1//EN" "http://www.w3.org/Graphics/SVG/1.1/DTD/svg11.dtd"><svg t="1573612736452" class="icon" viewBox="0 0 1024 1024" version="1.1" xmlns="http://www.w3.org/2000/svg" p-id="12983" xmlns:xlink="http://www.w3.org/1999/xlink" width="600" height="600"><defs><style type="text/css"></style></defs><path d="M691.2 704V624a48 48 0 0 1 96 0V704h60.8a48 48 0 1 1 0 96h-60.8v48a48 48 0 1 1-96 0v-48H624a48 48 0 1 1 0-96h67.2zM128 384V192a64 64 0 0 1 64-64h192a64 64 0 0 1 64 64v192a64 64 0 0 1-64 64H192a64 64 0 0 1-64-64z m96-32h128v-128h-128v128zM576 384V192a64 64 0 0 1 64-64h192a64 64 0 0 1 64 64v192a64 64 0 0 1-64 64h-192a64 64 0 0 1-64-64z m96-32h128v-128h-128v128zM128 832v-192a64 64 0 0 1 64-64h192a64 64 0 0 1 64 64v192a64 64 0 0 1-64 64H192a64 64 0 0 1-64-64z m96-32h128v-128h-128v128z" p-id="12984" fill="#BFCBD9"></path></svg>