<?xml version="1.0" standalone="no"?><!DOCTYPE svg PUBLIC "-//W3C//DTD SVG 1.1//EN" "http://www.w3.org/Graphics/SVG/1.1/DTD/svg11.dtd"><svg t="1573613005130" class="icon" viewBox="0 0 1024 1024" version="1.1" xmlns="http://www.w3.org/2000/svg" p-id="15576" xmlns:xlink="http://www.w3.org/1999/xlink" width="600" height="600"><defs><style type="text/css"></style></defs><path d="M855.088762 0.487619H189.19619a108.641524 108.641524 0 0 0-108.495238 108.495238v173.104762a29.647238 29.647238 0 0 0 59.245715 0v-173.104762c0-27.160381 22.089143-49.347048 49.249523-49.347047h665.892572c27.160381 0 49.249524 22.186667 49.249524 49.347047v781.848381c0 27.160381-22.089143 49.298286-49.249524 49.298286H189.19619c-27.160381 0-49.249524-22.137905-49.249523-49.298286v-174.811428a29.598476 29.598476 0 0 0-59.245715 0v174.811428a108.592762 108.592762 0 0 0 108.495238 108.446476h665.892572a108.544 108.544 0 0 0 108.446476-108.446476V108.982857A108.641524 108.641524 0 0 0 855.088762 0.487619" fill="#BFCBD9" p-id="15577"></path><path d="M132.534857 360.69181L53.686857 362.300952a29.696 29.696 0 0 0 0.585143 59.196953h0.585143l78.896762-1.609143a29.696 29.696 0 0 0 28.964571-30.183619c-0.390095-16.335238-14.726095-30.622476-30.183619-29.013333" fill="#BFCBD9" p-id="15578"></path><path d="M54.272 529.310476h0.585143l78.896762-1.560381a29.696 29.696 0 0 0 29.013333-30.183619c-0.438857-16.335238-14.774857-27.89181-30.232381-29.013333L53.686857 470.162286A29.647238 29.647238 0 0 0 54.272 529.310476" fill="#BFCBD9" p-id="15579"></path><path d="M162.718476 605.379048c-0.390095-16.335238-14.726095-28.476952-30.183619-28.964572l-78.848 1.560381a29.647238 29.647238 0 0 0 0.585143 59.196953h0.585143l78.896762-1.560381a29.647238 29.647238 0 0 0 28.964571-30.232381" fill="#BFCBD9" p-id="15580"></path><path d="M535.015619 471.527619A129.706667 129.706667 0 0 1 405.211429 341.723429a129.706667 129.706667 0 0 1 129.852952-129.852953 130.633143 130.633143 0 0 1 129.901714 129.852953 129.706667 129.706667 0 0 1-129.901714 129.901714m0-313.636572a185.148952 185.148952 0 0 0-108.836571 334.799239c34.133333-11.897905 70.704762-18.432 108.836571-18.432a27.696762 27.696762 0 0 1 9.264762 53.638095 185.148952 185.148952 0 0 0-9.264762-370.005334" fill="#BFCBD9" p-id="15581"></path><path d="M426.179048 492.739048c-129.316571 45.348571-222.695619 168.862476-222.695619 313.148952 0 15.11619 12.434286 27.599238 27.648 27.599238 15.11619 0 27.599238-12.434286 27.599238-27.599238 0-151.990857 124.342857-276.333714 276.284952-276.333714a27.306667 27.306667 0 0 0 9.264762-1.609143 183.978667 183.978667 0 0 1-118.101333-35.206095" fill="#BFCBD9" p-id="15582"></path><path d="M546.133333 530.383238a29.744762 29.744762 0 0 0-9.947428-57.685333 353.52381 353.52381 0 0 0-117.028572 19.846095 197.973333 197.973333 0 0 0 127.024762 37.839238" fill="#BFCBD9" p-id="15583"></path><path d="M700.806095 547.547429a27.696762 27.696762 0 0 0-27.648 27.599238v78.750476H594.407619a27.696762 27.696762 0 0 0 0 55.296h78.750476v78.701714c0 15.164952 12.434286 27.648 27.648 27.648a27.794286 27.794286 0 0 0 27.648-27.648v-78.701714h78.701715a27.794286 27.794286 0 0 0 27.648-27.696762 27.696762 27.696762 0 0 0-27.648-27.599238H728.502857v-78.750476a27.696762 27.696762 0 0 0-27.648-27.599238" fill="#BFCBD9" p-id="15584"></path></svg>