<?xml version="1.0" standalone="no"?><!DOCTYPE svg PUBLIC "-//W3C//DTD SVG 1.1//EN" "http://www.w3.org/Graphics/SVG/1.1/DTD/svg11.dtd"><svg t="1573616869127" class="icon" viewBox="0 0 1024 1024" version="1.1" xmlns="http://www.w3.org/2000/svg" p-id="5214" xmlns:xlink="http://www.w3.org/1999/xlink" width="1000" height="1000"><defs><style type="text/css"></style></defs><path d="M698.73 861.365h277.082v-60.236H698.729z" fill="" p-id="5215"></path><path d="M867.388 969.788V692.706h-60.235v277.082zM463.812 608.376c156.612 0 283.106-126.494 283.106-277.082S620.424 54.212 463.812 54.212 180.706 180.706 180.706 331.294 307.2 608.376 463.812 608.376z m0-60.235c-126.494 0-222.87-96.376-222.87-216.847s102.4-216.847 222.87-216.847c126.494 0 222.87 96.377 222.87 216.847s-102.4 216.847-222.87 216.847z" fill="" p-id="5216"></path><path d="M740.894 656.565c-66.259-66.26-174.682-108.424-277.082-108.424-228.894 0-415.624 192.753-415.624 427.67h60.236c0-204.8 162.635-367.435 355.388-367.435 84.33 0 180.706 36.142 234.917 90.353l42.165-42.164z" fill="" p-id="5217"></path></svg>