<?xml version="1.0" standalone="no"?><!DOCTYPE svg PUBLIC "-//W3C//DTD SVG 1.1//EN" "http://www.w3.org/Graphics/SVG/1.1/DTD/svg11.dtd"><svg t="1574061716249" class="icon" viewBox="0 0 1024 1024" version="1.1" xmlns="http://www.w3.org/2000/svg" p-id="4707" width="600" height="600" xmlns:xlink="http://www.w3.org/1999/xlink"><defs><style type="text/css"></style></defs><path d="M722.177797 225.195925c0-116.094088-94.134724-210.153324-210.161935-210.153324-116.099868 0-210.163982 94.059236-210.163982 210.153324 0 116.096135 94.064113 210.155371 210.163982 210.155371C628.042049 435.351296 722.177797 341.29206 722.177797 225.195925z" p-id="4708" fill="#BFCBD9"></path><path d="M792.232116 505.400698l-0.136105 0-38.593528 0L535.544682 947.797457l81.550612-407.371034L512.014839 435.351296 406.934383 540.426423l81.407344 407.371034L270.379832 505.400698l-38.582271 0-0.135082 0c-140.004257 0-140.004257 94.131891-140.004257 210.155371l0 293.40133 840.680487 0L932.338708 715.556069C932.339732 599.532589 932.339732 505.400698 792.232116 505.400698z" p-id="4709" fill="#BFCBD9"></path></svg>