<?xml version="1.0" standalone="no"?><!DOCTYPE svg PUBLIC "-//W3C//DTD SVG 1.1//EN" "http://www.w3.org/Graphics/SVG/1.1/DTD/svg11.dtd"><svg t="1574061917554" class="icon" viewBox="0 0 1024 1024" version="1.1" xmlns="http://www.w3.org/2000/svg" p-id="5238" width="600" height="600" xmlns:xlink="http://www.w3.org/1999/xlink"><defs><style type="text/css"></style></defs><path d="M305.92 342.528c-2.048-14.592-3.584-28.672-5.632-42.496-6.144-39.168 5.888-73.472 29.44-103.68 24.832-31.744 55.552-57.088 95.488-67.072 52.224-13.056 107.52-1.28 143.616 43.776 2.56 3.072 5.376 6.656 8.96 7.68 26.88 9.216 36.864 31.232 41.984 56.32 6.144 31.232 3.072 62.208-3.584 92.928-1.536 7.168-3.072 13.056 7.424 16.64 4.608 1.536 8.96 11.776 8.96 17.92 0 25.6-3.84 52.736-19.456 72.448-16.128 20.48-20.48 44.8-32.768 66.048-21.248 37.12-50.176 65.28-91.904 76.8-49.664 13.824-89.344-6.4-123.136-41.728-20.224-20.992-33.28-46.336-40.704-74.752-1.536-5.376-6.656-9.728-9.216-15.104-7.936-16.384-16.128-33.024-22.528-49.92-3.584-9.216-4.096-19.968-4.864-29.952-0.768-15.36 3.072-20.48 17.92-25.856zM647.168 644.864a24.0384 24.0384 0 1 1 0 48.128 24.0384 24.0384 0 1 1 0-48.128zM864.256 692.992h-142.592a24.0384 24.0384 0 1 1 0-48.128h142.592a24.0384 24.0384 0 1 1 0 48.128zM647.168 725.248a24.0384 24.0384 0 1 1 0 48.128 24.0384 24.0384 0 1 1 0-48.128zM864.256 773.632h-142.592a24.0384 24.0384 0 1 1 0-48.128h142.592c13.312 0 24.064 10.752 24.064 24.064 0 13.056-10.752 24.064-24.064 24.064zM647.168 805.632a24.0384 24.0384 0 1 1 0 48.128 24.0384 24.0384 0 1 1 0-48.128zM864.256 854.016h-142.592a24.0384 24.0384 0 1 1 0-48.128h142.592c13.312 0 24.064 10.752 24.064 24.064 0 13.056-10.752 24.064-24.064 24.064z" fill="#BFCBD9" p-id="5239"></path><path d="M571.904 829.696c0-14.848 4.352-28.416 11.776-40.192a74.6752 74.6752 0 0 1 0-80.384c-7.424-11.776-11.776-25.344-11.776-40.192 0-37.632 27.904-68.864 64.256-74.24-16.384-7.936-32.512-16.128-48.896-24.32-5.632-2.816-8.96-4.352-11.264 3.072-17.408 55.296-35.072 110.336-52.48 165.632-4.352 13.824-9.216 27.648-14.08 41.216-1.024 0-2.048 0-3.072-0.256-7.168-19.968-14.08-40.192-21.76-59.904-3.584-9.216-2.048-16.128 2.816-24.32 6.656-11.008 12.288-23.04 16.896-35.072 6.912-17.664-0.512-36.352-17.152-41.216-11.52-3.328-24.32-5.12-36.352-3.84-25.088 2.816-36.864 18.944-31.488 40.96 2.304 9.472 5.376 19.456 11.008 26.88 12.288 15.872 13.824 30.976 5.632 48.896-7.168 15.36-11.776 31.488-17.664 47.36-1.024-0.256-2.048-0.256-3.072-0.512-3.072-8.448-6.4-16.896-8.96-25.6-18.688-58.624-37.12-117.248-55.808-175.872-4.352-13.568-4.352-13.312-17.152-5.632-38.912 23.296-79.36 44.032-123.392 55.552-40.448 10.496-64.256 34.816-71.424 76.544-6.144 35.072 0.256 69.376 3.072 104.192 0.768 9.728 5.376 15.36 14.08 19.968 77.056 40.704 159.744 60.672 245.76 67.84 66.56 5.632 132.608 2.56 197.888-9.984a71.7312 71.7312 0 0 1-27.392-56.576z" fill="#BFCBD9" p-id="5240"></path></svg>