<?xml version="1.0" standalone="no"?><!DOCTYPE svg PUBLIC "-//W3C//DTD SVG 1.1//EN" "http://www.w3.org/Graphics/SVG/1.1/DTD/svg11.dtd"><svg t="1573610222789" class="icon" viewBox="0 0 1024 1024" version="1.1" xmlns="http://www.w3.org/2000/svg" p-id="4508" xmlns:xlink="http://www.w3.org/1999/xlink" width="200" height="200"><defs><style type="text/css"></style></defs><path d="M512 989.888A477.888 477.888 0 1 1 512.064 34.048 477.888 477.888 0 0 1 512 989.888z m0-63.68A414.208 414.208 0 1 0 512 97.792a414.208 414.208 0 0 0 0 828.416z" fill="#999999" p-id="4509"></path><path d="M524.352 278.4c43.52 0 78.848 11.52 106.048 36.032 27.2 23.808 40.768 56.448 40.768 97.216 0 33.28-8.896 61.12-25.856 82.88-6.08 7.424-25.152 25.152-57.024 52.992-12.928 10.88-22.4 23.168-28.608 35.328-7.488 13.504-10.88 28.544-10.88 44.864v11.52H476.032v-11.52c0-25.152 4.096-46.912 13.568-64.512 8.832-19.008 34.688-46.912 76.8-84.288l11.52-12.864c12.288-15.68 19.008-31.936 19.008-49.6 0-23.808-6.848-42.176-19.776-55.68-13.504-13.568-33.28-20.416-57.792-20.416-30.592 0-52.992 9.536-66.56 29.248-12.288 16.32-18.368 39.488-18.368 69.312H363.072c0-49.6 14.336-88.32 42.816-116.864 28.8-29.376 68.224-43.648 118.464-43.648z m-12.16 397.568c14.336 0 26.496 4.032 36.096 13.504a45.184 45.184 0 0 1 14.272 34.688 48.128 48.128 0 0 1-14.912 35.328 50.88 50.88 0 0 1-35.328 13.504 48.768 48.768 0 0 1-49.6-48.96c0-14.272 4.8-25.792 14.272-34.624a47.744 47.744 0 0 1 35.2-13.44z" fill="#999999" p-id="4510"></path></svg>