<?xml version="1.0" standalone="no"?><!DOCTYPE svg PUBLIC "-//W3C//DTD SVG 1.1//EN" "http://www.w3.org/Graphics/SVG/1.1/DTD/svg11.dtd"><svg t="1573617582788" class="icon" viewBox="0 0 1024 1024" version="1.1" xmlns="http://www.w3.org/2000/svg" p-id="26280" xmlns:xlink="http://www.w3.org/1999/xlink" width="200" height="200"><defs><style type="text/css"></style></defs><path d="M854.2 861.4H168.6c-21.4 0-39-17.5-39-39v-38.7c0-21.4 17.5-39 39-39h685.6c21.4 0 39 17.5 39 39v38.7c0 21.5-17.5 39-39 39zM821.3 165.5H205.9c-41.2 0-74.8 33.7-74.8 74.8v355.4c0 41.2 33.7 74.8 74.8 74.8h615.4c41.2 0 74.8-33.7 74.8-74.8V240.3c0-41.1-33.6-74.8-74.8-74.8zM539.9 477.6c0 18.5-15.2 33.7-33.7 33.7H324.1c-18.5 0-33.7-15.2-33.7-33.7 0-18.5 15.2-33.7 33.7-33.7h182.1c18.6 0 33.7 15.1 33.7 33.7z m95.5-133.2c0 18.5-15.2 33.7-33.7 33.7H322.4c-18.5 0-33.7-15.2-33.7-33.7 0-18.5 15.2-33.7 33.7-33.7h279.3c18.5 0 33.7 15.1 33.7 33.7z" p-id="26281"></path></svg>