<?xml version="1.0" standalone="no"?><!DOCTYPE svg PUBLIC "-//W3C//DTD SVG 1.1//EN" "http://www.w3.org/Graphics/SVG/1.1/DTD/svg11.dtd"><svg t="1573609545079" class="icon" viewBox="0 0 1024 1024" version="1.1" xmlns="http://www.w3.org/2000/svg" p-id="2970" xmlns:xlink="http://www.w3.org/1999/xlink" width="600" height="600"><defs><style type="text/css"></style></defs><path d="M416.8 660.9l0.9 20.6-12.2 20.1 37.3 163-52.7 25.6-52.7-25.6 37.3-163-12.2-20.1 0.9-20.6c23.4-1.2 30.2-1.2 53.4 0zM379.9 94.3h516.7c16.1 0 30.8 6.6 41.5 17.2 10.6 10.6 17.2 25.3 17.2 41.5v322.7c0 16.1-6.6 30.8-17.2 41.4-10.7 10.6-25.3 17.2-41.4 17.2H668.2l-80.8 63.5-28.8 22.6 5.5-36.2 6.7-44.2 28.7 4.3-1.2 8 132.5-104.1 18 22.8-43.6 34.3h191.4c8.2 0 15.6-3.3 20.9-8.7 5.3-5.3 8.6-12.8 8.6-20.9V153c0-8.1-3.3-15.6-8.7-20.9-5.4-5.4-12.8-8.7-20.9-8.7H379.9c-8.2 0-15.6 3.3-21 8.7-5.4 5.4-8.7 12.8-8.7 21v21.1h-29V153c0-16.1 6.6-30.8 17.2-41.4h0.1c10.6-10.7 25.3-17.3 41.4-17.3z" p-id="2971"></path><path d="M558.6 388.9c10-132.5-8.7-208.8-167.6-187.6-53.9 7.2-112.5-8.6-145.9 15.8-42 39.6-45 99.1-33.6 168.8-2.5 1.4-5.1 2.9-7.6 4.6l-7.5 5.1-0.1 9c-0.4 23.2 2.5 42.9 8.8 57.9 5.7 13.7 14.1 23.8 25.3 30C243.8 538 263 572.2 287 596.8c26.2 26.8 57.7 42 93.3 48.1l3.2 0.5 3.2-0.6c39.5-8.3 70.9-24.3 96.1-50.8 23.3-24.6 40.6-57.8 53.4-102.2 10.8-6.3 18.9-16.6 24.4-30.1 6-14.9 8.8-34.2 8.4-57l-0.1-9-7.5-5.1c-1-0.6-1.9-1.2-2.8-1.7z" p-id="2972"></path><path d="M172.4 644.7h-7.1l-5.4 4.7c-38 33.2-60.3 81.6-73.3 131-12.5 47.9-16.3 96.8-17 132.8l-0.4 19.1H696.4l1.8-16.8c4.7-43.4-2.7-98.4-18.9-148.8-15.4-48.1-39.1-92.8-68.2-120.3l-5.7-5.4-7.7 0.3-90.8 3.1v37.4l83.9-2.9c21.8 23.3 40.2 59.6 52.9 99.2 12.6 39.2 19.4 81.2 18.4 116.6H107.7c1.5-31 5.6-68.4 15.2-105 10.6-40.6 28.1-80.1 56.7-107.5l76.1 0.7v-37.4l-83.3-0.8zM748.2 338.6v22.1h121v-22.1h-121zM620.5 338.6v22.1H729v-22.1H620.5zM808.2 263.9V286h61v-22.1h-61zM759.2 263.9V286h24.5v-22.1h-24.5zM688.2 263.9V286h49v-22.1h-49zM620.5 263.9V286h48.9v-22.1h-48.9zM620.5 194.7v22.1h248.7v-22.1H620.5zM231.4 421c0.8 11.3 2.7 20.8 5.8 28.2 3.1 7.5 7.4 12.4 12.8 14l9.2 2.9 2.5 9.3c11.8 43.6 28.9 75.4 50.2 97.2 19.9 20.4 43.8 32.3 70.9 37.4 30.9-7 55.4-19.6 74.7-40 20.5-21.6 35.7-52.5 47.2-95l2.4-8.9 8.7-3.1c5.3-1.8 9.4-6.8 12.5-14.3 2.9-7.4 4.8-16.6 5.6-27.6-5.1 0-10.2 0.2-16.1 0.9l-2.3-7.9-5 0.3-2.9-15.1c-2.2-11.8-5.6-22.7-10-32.8-13.3 5.6-28.2-4.7-41.6-12.5l-6.8 21.4-11-1.4 1.4-13-11.6 18.5-10.3-2 10.1-27.6c-56.7 50.3-123.1 47.1-160.1 19-1.2 2.9-2.3 5.8-3.3 8.8-2.6 10.2-5.4 23.5-8 33.6l-0.7 3.7h-0.3c-0.6 2-1.1 3.8-1.6 5.4-4.5-3.1-13.9-0.7-22.4 0.6z" p-id="2973"></path></svg>