<?xml version="1.0" standalone="no"?><!DOCTYPE svg PUBLIC "-//W3C//DTD SVG 1.1//EN" "http://www.w3.org/Graphics/SVG/1.1/DTD/svg11.dtd"><svg t="1573612100731" class="icon" viewBox="0 0 1024 1024" version="1.1" xmlns="http://www.w3.org/2000/svg" p-id="3848" xmlns:xlink="http://www.w3.org/1999/xlink" width="600" height="600"><defs><style type="text/css"></style></defs><path d="M968.74199 947.508588h-73.101743a18.739117 18.739117 0 0 1 18.355381 18.930985v37.925926a18.675161 18.675161 0 0 1-18.355381 18.930985H164.750734a18.547249 18.547249 0 0 1-18.227469-18.930985v-37.925926a18.547249 18.547249 0 0 1 18.227469-18.930985H55.194054a55.769658 55.769658 0 0 1-54.810318-56.920867v-37.86197a55.89757 55.89757 0 0 1 54.810318-56.920867h913.675848a55.769658 55.769658 0 0 1 54.810318 56.920867v37.86197a55.961526 55.961526 0 0 1-54.93823 56.920867zM408.039473 463.297483a68.944601 68.944601 0 0 0-5.756043 29.419774 146.139529 146.139529 0 0 0 106.614703 149.209418c1.726813-16.4367 3.133845-29.867466 3.133845-35.303728l-36.582849-113.713822a37.286366 37.286366 0 0 1 36.582849-37.925926h36.518893c20.529886 0.447692 36.902629 17.332084 36.58285 37.925926l-36.58285 113.713822c0 5.692087-1.151209 19.378677-3.389669 36.199113a144.220848 144.220848 0 0 0 113.010305-149.785023c0.063956-8.953844-0.63956-17.971644-2.238461-26.861533 177.605896 34.15252 234.782587 146.587221 251.603023 292.08719H149.848979c10.488789-149.529199 56.601087-263.946537 258.190494-294.965211z m122.156018-46.432078c-90.817563 0-164.366998-93.375804-164.366998-208.496659C365.828493 93.247892 439.441884 0 530.195491 0c90.817563 0 164.49491 93.375804 164.494909 208.496659 0 115.120854-73.549435 208.368746-164.430953 208.368746z" fill="#BFCBD9" p-id="3849"></path></svg>