<?xml version="1.0" standalone="no"?><!DOCTYPE svg PUBLIC "-//W3C//DTD SVG 1.1//EN" "http://www.w3.org/Graphics/SVG/1.1/DTD/svg11.dtd"><svg t="1573612234725" class="icon" viewBox="0 0 1024 1024" version="1.1" xmlns="http://www.w3.org/2000/svg" p-id="3995" xmlns:xlink="http://www.w3.org/1999/xlink" width="600" height="600"><defs><style type="text/css"></style></defs><path d="M800.8704 880.64a151.552 151.552 0 0 1-146.7392 113.9712h-499.2a151.552 151.552 0 0 1-146.8928-188.672l0.768-2.7136 45.4656-136.3456a151.5008 151.5008 0 0 1 146.5344-113.3056h71.68a36.9664 36.9664 0 0 1 0 73.984h-71.68a77.9264 77.9264 0 0 0-75.6736 58.88l-0.8192 2.7136-45.4144 136.0896a77.8752 77.8752 0 0 0 75.9808 95.1808h499.2a77.6704 77.6704 0 0 0 76.032-95.1808l-45.4144-136.0896-0.768-2.7648a77.9776 77.9776 0 0 0-75.7248-58.88h-66.048a36.9664 36.9664 0 0 1 0-73.984h66.048a151.5008 151.5008 0 0 1 146.5344 113.3056l29.3376 87.9104 150.4768-363.52a36.608 36.608 0 0 1 48.0256-19.9168 37.0688 37.0688 0 0 1 19.7632 48.384l-182.6304 441.2416a36.7616 36.7616 0 0 1-18.8928 19.5072zM834.56 241.664a36.9664 36.9664 0 0 1 0-73.9328h145.92a36.9664 36.9664 0 0 1 0 73.9328H834.56z m-73.216-137.6256a36.9664 36.9664 0 0 1 0-73.9328h219.1872a36.9664 36.9664 0 0 1 0 73.9328H761.344z m-354.5088 413.44a238.7968 238.7968 0 1 1 237.1072-238.7968 237.9776 237.9776 0 0 1-237.1072 238.7968z m0-73.9328a164.8128 164.8128 0 1 0-163.84-164.864 164.2496 164.2496 0 0 0 163.84 164.864z m0 0" p-id="3996" fill="#BFCBD9"></path></svg>