<?xml version="1.0" standalone="no"?><!DOCTYPE svg PUBLIC "-//W3C//DTD SVG 1.1//EN" "http://www.w3.org/Graphics/SVG/1.1/DTD/svg11.dtd"><svg t="1573612939168" class="icon" viewBox="0 0 1365 1024" version="1.1" xmlns="http://www.w3.org/2000/svg" p-id="15387" xmlns:xlink="http://www.w3.org/1999/xlink" width="799.8046875" height="600"><defs><style type="text/css"></style></defs><path d="M380.16 819.2c-20.053 0-36.267-16.213-36.267-36.267V478.72c0-20.053 16.214-36.267 36.267-36.267s36.267 16.214 36.267 36.267v304.213c0 20.054-16.214 36.267-36.267 36.267z m0 0" p-id="15388" fill="#BFCBD9"></path><path d="M685.227 934.258c-114.063 0-268.8-57.031-319.147-106.098-14.791-14.364-22.187-29.582-22.187-45.227 0-20.053 16.214-36.266 36.267-36.266 17.351 0 31.858 12.23 35.413 28.586 22.756 26.738 168.391 89.458 276.48 86.33 111.645-3.13 254.72-60.019 278.614-86.756 3.697-16.214 18.062-28.16 35.27-28.16 20.054 0 36.267 16.213 36.267 36.266 0 81.778-244.337 148.338-348.302 151.183-2.702 0-5.689 0.142-8.675 0.142z m7.964-256.854c-5.831 0-11.52-1.422-16.782-4.124L184.462 415.858c-11.946-6.258-19.484-18.631-19.484-32.142 0-13.512 7.538-25.885 19.484-32.143L676.267 93.724c10.524-5.546 23.04-5.546 33.706 0l491.805 257.85c11.946 6.257 19.484 18.63 19.484 32.142 0 13.51-7.395 25.884-19.342 32.142L709.973 673.28c-5.262 2.702-11.093 4.124-16.782 4.124zM279.324 383.716l413.867 216.462 413.867-216.462-413.867-216.89-413.867 216.89z m0 0" p-id="15389" fill="#BFCBD9"></path><path d="M1006.08 819.2c-20.053 0-36.267-16.213-36.267-36.267V478.72c0-20.053 16.214-36.267 36.267-36.267s36.267 16.214 36.267 36.267v304.213c0 20.054-16.214 36.267-36.267 36.267z m178.916 44.089c-20.054 0-36.267-16.213-36.267-36.267V383.716c0-20.054 16.213-36.267 36.267-36.267s36.266 16.213 36.266 36.267v443.448c0 19.912-16.213 36.125-36.266 36.125z m0 0" p-id="15390" fill="#BFCBD9"></path></svg>