<?xml version="1.0" standalone="no"?><!DOCTYPE svg PUBLIC "-//W3C//DTD SVG 1.1//EN" "http://www.w3.org/Graphics/SVG/1.1/DTD/svg11.dtd"><svg t="1573612638203" class="icon" viewBox="0 0 1138 1024" version="1.1" xmlns="http://www.w3.org/2000/svg" p-id="12181" xmlns:xlink="http://www.w3.org/1999/xlink" width="666.796875" height="600"><defs><style type="text/css"></style></defs><path d="M476.049 501.311h159.799v64.136h-159.799v-64.136zM675.801 608.204h-239.703v-43.355h-279.652v281.793c0 33.616 26.128 60.865 58.751 60.865h681.503c32.444 0 58.751-27.464 58.751-60.865v-281.793h-279.652v43.355zM937.056 223.388h-221.307c0-59.035-71.543-106.896-159.803-106.896-88.255 0-159.796 47.861-159.796 106.896h-221.307c-32.222 0-58.352 27.088-58.352 60.568v178.165c0 33.451 26.308 60.569 58.352 60.569h261.254v-64.136h239.703v64.136h261.254c32.222 0 58.343-27.088 58.343-60.569v-178.165c0.001-33.452-26.299-60.568-58.343-60.568zM436.097 223.388c0-35.42 53.659-64.136 119.848-64.136 66.197 0 119.856 28.716 119.856 64.136h-239.703z" p-id="12182" fill="#BFCBD9"></path></svg>