<?xml version="1.0" standalone="no"?><!DOCTYPE svg PUBLIC "-//W3C//DTD SVG 1.1//EN" "http://www.w3.org/Graphics/SVG/1.1/DTD/svg11.dtd"><svg t="1573616780588" class="icon" viewBox="0 0 1024 1024" version="1.1" xmlns="http://www.w3.org/2000/svg" p-id="4828" width="1000" height="1000" xmlns:xlink="http://www.w3.org/1999/xlink"><defs><style type="text/css"></style></defs><path d="M672 778v53.2c0 29.6-24 53.2-53.2 53.2H85.2c-29.6 0-53.2-24-53.2-53.2v-53.2c0-120.4 66.8-225.6 165.2-280-80-84.4-77.6-217.2 5.6-298.8 82.8-81.6 216-81.6 298.8 0 82.8 81.6 85.6 214.4 5.6 298.8 101.6 56.4 164.8 163.6 164.8 280z m-533.2 0h426.8c0-118-95.6-213.2-213.2-213.2-118.4 0-213.6 95.6-213.6 213.2z m213.2-320c58.8 0 106.8-47.6 106.8-106.8 0-58.8-47.6-106.8-106.8-106.8-58.8 0-106.8 47.6-106.8 106.8 0 59.2 48 106.8 106.8 106.8z m480 213.6h106.8c29.6 0 53.2 24 53.2 53.2 0 29.6-24 53.2-53.2 53.2H832c-29.6 0-53.2-24-53.2-53.2 0-29.6 23.6-53.2 53.2-53.2z m-53.2-213.6h160c29.6 0 53.2 24 53.2 53.2 0 29.6-24 53.2-53.2 53.2h-160c-29.6 0-53.2-24-53.2-53.2-0.4-29.2 23.6-53.2 53.2-53.2z m-53.6-213.2h213.2c29.6 0 53.2 24 53.2 53.2 0 29.6-24 53.2-53.2 53.2h-213.2c-29.6 0-53.2-24-53.2-53.2 0-29.2 24-53.2 53.2-53.2z m0 0" fill="#939393" p-id="4829"></path></svg>