<?xml version="1.0" standalone="no"?><!DOCTYPE svg PUBLIC "-//W3C//DTD SVG 1.1//EN" "http://www.w3.org/Graphics/SVG/1.1/DTD/svg11.dtd"><svg t="1573617437386" class="icon" viewBox="0 0 1024 1024" version="1.1" xmlns="http://www.w3.org/2000/svg" p-id="21465" xmlns:xlink="http://www.w3.org/1999/xlink" width="200" height="200"><defs><style type="text/css"></style></defs><path d="M912 544.9c0-34.9-40.5-69-94.8-87-2.5-0.8-18.1-7.9-8.3-37.9h-0.1c25.5-26.4 44.9-68.9 44.9-110.7 0-64.4-42.5-98.1-91.9-98.1-49.4 0-91.7 33.7-91.7 98.1 0 42 19.3 84.7 45 111.1 10 26.4-7.9 36.2-11.6 37.6-12.9 4.7-25.3 10.4-36.7 16.8v-24.1c0-34.9-45.1-69-99.4-87-2.5-0.8-18.1-7.9-8.3-37.9h-0.1c25.5-26.4 44.9-68.9 44.9-110.7 0-64.4-42.5-98.1-91.9-98.1-49.4 0-91.7 33.7-91.7 98.1 0 42 19.3 84.7 45 111 10 26.4-7.9 36.2-11.6 37.6-51.7 18.9-95.2 53.2-95.2 87v24.9c-11.7-6.7-24.6-12.7-38-17.6-3.7-1.4-21.6-11.2-11.6-37.6 25.6-26.4 45-69 45-111.1 0-64.4-42.3-98.1-91.7-98.1-49.4 0-91.9 33.7-91.9 98.1 0 41.8 19.4 84.4 44.9 110.7h-0.2c9.8 29.9-5.9 37-8.3 37.9-54.3 18.1-94.8 52.1-94.8 87v161.5c0 0.3 0.2 0.6 0.2 0.9 0 0.7-0.2 1.3-0.2 1.9 0 87.5 98.2 162.7 238.7 195.9v-48.8c0-39.9 50.4-76.2 100.4-94.4 0 0 5.3-2.2 7.9-8 2.2-4.8 2-10.8-0.5-17.9-28-29.6-46-74.6-46-115.3 0-73.2 50-106 99.5-106 49.6 0 99.7 32.8 99.7 106 0 40.2-17.9 85-45.7 114.7-5.4 17.8-0.2 25 3.9 26.5 48.3 16.1 104.7 50.5 104.7 94.5v48.5C814.4 871.5 912 796.5 912 709.3c0-0.7-0.2-1.3-0.2-1.9 0-0.3 0.2-0.6 0.2-0.9V544.9z m0 0" p-id="21466"></path></svg>